<svg xmlns="http://www.w3.org/2000/svg" width="28" height="28" viewBox="0 0 28 28">
<g>
<path d="M 0.00 0.00 L 28.00 0.00 L 28.00 28.00 L 0.00 28.00 ZM 10.29 22.47 C12.84,24.51 14.43,24.98 18.00,24.77 C22.06,24.53 22.50,24.26 22.50,22.00 C22.50,19.76 22.00,19.44 17.79,18.96 C12.52,18.35 12.51,18.35 11.57,15.30 C10.60,12.12 14.19,8.79 18.18,9.19 C20.27,9.40 21.60,8.93 22.37,7.72 C24.61,4.20 17.94,2.74 11.64,5.38 C5.01,8.15 4.26,17.67 10.29,22.47 Z" fill="rgb(216,32,40)"/>
<path d="M 10.29 22.47 C4.26,17.67 5.01,8.15 11.64,5.38 C17.94,2.74 24.61,4.20 22.37,7.72 C21.60,8.93 20.27,9.40 18.18,9.19 C14.19,8.79 10.60,12.12 11.57,15.30 C12.51,18.35 12.52,18.35 17.79,18.96 C22.00,19.44 22.50,19.76 22.50,22.00 C22.50,24.26 22.06,24.53 18.00,24.77 C14.43,24.98 12.84,24.51 10.29,22.47 Z" fill="rgb(253,241,234)"/>
</g>
</svg>